<svg xmlns="http://www.w3.org/2000/svg" width="80" height="80" viewBox="0 0 80 80">
    <g fill="none" fill-rule="evenodd">
        <path stroke="#007731" stroke-linecap="round" stroke-linejoin="round" d="M5.5 60.47L74.073 60.47M1 60.47L3.497 60.47M76 60.47L78.497 60.47"/>
        <path fill="#C4E9C0" d="M19.974 56.478L58.932 56.478 58.932 36.517 19.974 36.517z"/>
        <path stroke="#4550E6" stroke-linecap="round" stroke-linejoin="round" d="M19.974 56.478L58.932 56.478 58.932 36.517 19.974 36.517z"/>
        <path fill="#FFF" d="M62.428 60.47h-45.95v-2.994c0-.55.446-.998.999-.998h43.952c.553 0 1 .446 1 .998v2.994z"/>
        <path stroke="#007731" stroke-linecap="round" stroke-linejoin="round" d="M62.428 60.47h-45.95v-2.994c0-.55.446-.998.999-.998h43.952c.553 0 1 .446 1 .998v2.994z"/>
        <path fill="#FFF" d="M43.449 54.482h-7.992c-.552 0-.999.447-.999.998 0 .55.447.998 1 .998h7.99c.553 0 1-.447 1-.998 0-.551-.447-.998-1-.998"/>
        <path stroke="#007731" stroke-linecap="round" stroke-linejoin="round" d="M43.449 54.482h-7.992c-.552 0-.999.447-.999.998 0 .55.447.998 1 .998h7.99c.553 0 1-.447 1-.998 0-.551-.447-.998-1-.998z"/>
        <path fill="#FFF" d="M43.449 36.517h-7.992c-.552 0-.999.447-.999.998 0 .55.447.998 1 .998h7.99c.553 0 1-.447 1-.998 0-.551-.447-.998-1-.998"/>
        <path stroke="#007731" stroke-linecap="round" stroke-linejoin="round" d="M43.449 36.517h-7.992c-.552 0-.999.447-.999.998 0 .55.447.998 1 .998h7.99c.553 0 1-.447 1-.998 0-.551-.447-.998-1-.998z"/>
        <path fill="#FFF" d="M36.456 54.482L42.45 54.482 42.45 38.513 36.456 38.513z"/>
        <path stroke="#007731" stroke-linecap="round" stroke-linejoin="round" d="M36.456 54.482L42.45 54.482 42.45 38.513 36.456 38.513z"/>
        <path fill="#FFF" d="M26.966 54.482h-7.99c-.553 0-1 .447-1 .998 0 .55.447.998 1 .998h7.99c.553 0 1-.447 1-.998 0-.551-.447-.998-1-.998"/>
        <path stroke="#007731" stroke-linecap="round" stroke-linejoin="round" d="M26.966 54.482h-7.99c-.553 0-1 .447-1 .998 0 .55.447.998 1 .998h7.99c.553 0 1-.447 1-.998 0-.551-.447-.998-1-.998z"/>
        <path fill="#FFF" d="M26.966 36.517h-7.99c-.553 0-1 .447-1 .998 0 .55.447.998 1 .998h7.99c.553 0 1-.447 1-.998 0-.551-.447-.998-1-.998"/>
        <path stroke="#007731" stroke-linecap="round" stroke-linejoin="round" d="M26.966 36.517h-7.99c-.553 0-1 .447-1 .998 0 .55.447.998 1 .998h7.99c.553 0 1-.447 1-.998 0-.551-.447-.998-1-.998z"/>
        <path fill="#FFF" d="M19.974 54.482L25.968 54.482 25.968 38.513 19.974 38.513zM51.94 54.482h7.99c.553 0 1 .447 1 .998 0 .55-.447.998-1 .998h-7.99c-.553 0-1-.447-1-.998 0-.551.447-.998 1-.998"/>
        <path stroke="#007731" stroke-linecap="round" stroke-linejoin="round" d="M51.94 54.482h7.99c.553 0 1 .447 1 .998 0 .55-.447.998-1 .998h-7.99c-.553 0-1-.447-1-.998 0-.551.447-.998 1-.998z"/>
        <path fill="#FFF" d="M51.94 36.517h7.99c.553 0 1 .447 1 .998 0 .55-.447.998-1 .998h-7.99c-.553 0-1-.447-1-.998 0-.551.447-.998 1-.998"/>
        <path stroke="#007731" stroke-linecap="round" stroke-linejoin="round" d="M51.94 36.517h7.99c.553 0 1 .447 1 .998 0 .55-.447.998-1 .998h-7.99c-.553 0-1-.447-1-.998 0-.551.447-.998 1-.998z"/>
        <path fill="#FFF" d="M52.938 54.482L58.932 54.482 58.932 38.513 52.938 38.513z"/>
        <path stroke="#007731" stroke-linecap="round" stroke-linejoin="round" d="M52.938 54.482L58.932 54.482 58.932 38.513 52.938 38.513z"/>
        <path fill="#FFF" d="M19.267 33.023c-.183.299-.292.64-.292.998v2.496h40.956V34.02c0-.359-.11-.7-.292-.998H19.267z"/>
        <path stroke="#007731" stroke-linecap="round" stroke-linejoin="round" d="M19.267 33.023c-.183.299-.292.64-.292.998v2.496h40.956V34.02c0-.359-.11-.7-.292-.998H19.267z"/>
        <path fill="#FFF" d="M25.558 33.023l12.728-9.142c.697-.501 1.636-.501 2.334 0l12.728 9.142h6.29c-.135-.22-.304-.422-.523-.576l-18.51-13.08c-.69-.49-1.615-.49-2.305 0l-18.509 13.08c-.219.154-.389.356-.524.576h6.29z"/>
        <path stroke="#007731" stroke-linecap="round" stroke-linejoin="round" d="M25.558 33.023l12.728-9.142c.697-.501 1.636-.501 2.334 0l12.728 9.142h6.29c-.135-.22-.304-.422-.523-.576l-18.51-13.08c-.69-.49-1.615-.49-2.305 0l-18.509 13.08c-.219.154-.389.356-.524.576h6.29z"/>
        <path fill="#C4E9C0" d="M38.286 23.88l-12.728 9.143h27.79L40.62 23.881c-.698-.501-1.637-.501-2.334 0"/>
        <path stroke="#007731" stroke-linecap="round" stroke-linejoin="round" d="M38.286 23.88l-12.728 9.143h27.79L40.62 23.881c-.698-.501-1.637-.501-2.334 0zM19.974 54.482L25.968 54.482 25.968 38.513 19.974 38.513z"/>
        <path fill="#70CE6A" d="M13.881 49.312c0 3.167-1.137 5.9-2.397 5.9-1.262 0-2.399-2.733-2.399-5.9 0-3.168 2.399-11.467 2.399-11.467s2.397 8.299 2.397 11.467"/>
        <path stroke="#007731" d="M11.483 55.212L11.483 60.47"/>
        <path stroke="#007731" stroke-linejoin="round" d="M13.881 49.312c0 3.167-1.137 5.9-2.397 5.9-1.262 0-2.399-2.733-2.399-5.9 0-3.168 2.399-11.467 2.399-11.467s2.397 8.299 2.397 11.467z"/>
        <path fill="#70CE6A" d="M70.22 49.312c0 3.167-1.136 5.9-2.397 5.9-1.262 0-2.398-2.733-2.398-5.9 0-3.168 2.398-11.467 2.398-11.467s2.397 8.299 2.397 11.467"/>
        <path stroke="#007731" d="M67.823 55.212L67.823 60.47"/>
        <path stroke="#007731" stroke-linejoin="round" d="M70.22 49.312c0 3.167-1.136 5.9-2.397 5.9-1.262 0-2.398-2.733-2.398-5.9 0-3.168 2.398-11.467 2.398-11.467s2.397 8.299 2.397 11.467z"/>
        <path fill="#FFF" stroke="#007731" stroke-linecap="round" stroke-linejoin="round" d="M66.153 18.518c.265-1.155 1.165-2.057 2.315-2.325l4.647-1.076c.174-.04.299-.197.299-.378 0-.18-.125-.337-.3-.377l-4.646-1.076c-1.15-.267-2.05-1.169-2.315-2.324L65.081 6.3c-.04-.175-.196-.3-.376-.3-.179 0-.336.125-.376.3l-1.072 4.662c-.265 1.155-1.164 2.057-2.314 2.325l-4.644 1.075c-.175.04-.299.196-.299.377s.123.337.299.378l4.644 1.076c1.15.266 2.049 1.17 2.314 2.325l1.072 4.664c.04.175.197.3.376.3.18 0 .336-.125.376-.3l1.072-4.664zM17.941 21.967l3.636-1.217c.139-.047.233-.178.233-.326 0-.147-.094-.277-.233-.325l-2.988-1c-.407-.135-.727-.457-.862-.866l-.997-3c-.047-.139-.177-.233-.324-.233-.148 0-.277.094-.323.234l-.997 3c-.136.408-.456.73-.863.865l-2.99 1c-.139.048-.233.178-.233.325 0 .148.094.279.234.326l2.989 1c.407.137.727.458.863.867l.997 3c.046.141.175.236.323.236.147 0 .277-.095.324-.235l1.211-3.651z"/>
        <g stroke="#70CE6A" stroke-linecap="round" stroke-linejoin="round" stroke-width="1.5">
            <path d="M3.5 0L3.5 6" transform="translate(29 2) matrix(-1 0 0 1 7 0)"/>
            <path d="M3.5 0L3.5 6" transform="translate(29 2) matrix(0 1 1 0 .5 -.5)"/>
        </g>
        <g stroke="#70CE6A" stroke-linecap="round" stroke-linejoin="round" stroke-width="1.5">
            <path d="M2.5 0L2.5 4" transform="translate(72 34) matrix(-1 0 0 1 5 0)"/>
            <path d="M2.5 0L2.5 4" transform="translate(72 34) matrix(0 1 1 0 .5 -.5)"/>
        </g>
        <circle cx="4" cy="9" r="3" stroke="#11B719" stroke-width="1.5" transform="matrix(-1 0 0 1 8 0)"/>
        <circle cx="13.5" cy="66.5" r="2.5" stroke="#11B719" stroke-width="1.5" transform="matrix(-1 0 0 1 27 0)"/>
        <g stroke="#70CE6A" stroke-linecap="round" stroke-linejoin="round" stroke-width="1.5">
            <path d="M2.5 0L2.5 4" transform="translate(53 70) matrix(-1 0 0 1 5 0)"/>
            <path d="M2.5 0L2.5 4" transform="translate(53 70) matrix(0 1 1 0 .5 -.5)"/>
        </g>
    </g>
</svg>
